<svg width="167" height="24" viewBox="0 0 167 24" fill="none" xmlns="http://www.w3.org/2000/svg">
<path d="M1.09863 22.939C1.21053 22.7762 1.33769 22.5371 1.4801 22.2218C1.62252 21.8963 1.73442 21.4894 1.8158 21.0011C1.92769 20.289 2.04977 19.4905 2.18201 18.6055C2.32442 17.7103 2.46684 16.7744 2.60925 15.7978C2.76184 14.8213 2.90934 13.8244 3.05176 12.8071C3.20435 11.7797 3.34676 10.7726 3.47901 9.78588C3.62142 8.78897 3.75366 7.83276 3.87573 6.91723C4.00798 5.99153 4.12496 5.14721 4.22669 4.38427C4.32841 3.62133 4.40979 2.96011 4.47083 2.40062C4.54204 1.83096 4.5929 1.40372 4.62342 1.11888H6.56128L16.1591 19.0632L25.6806 1.11888H27.1301L29.6326 19.2463C29.7038 19.816 29.7801 20.3043 29.8615 20.7112C29.9428 21.1181 30.0242 21.469 30.1056 21.764C30.187 22.0489 30.2633 22.2879 30.3345 22.4812C30.4159 22.6643 30.4922 22.8169 30.5634 22.939V23H26.7182V22.939C26.769 22.8271 26.8148 22.644 26.8555 22.3896C26.9063 22.1353 26.9318 21.8302 26.9318 21.4741C26.9318 21.3419 26.9267 21.2096 26.9165 21.0774C26.9063 20.935 26.8911 20.7824 26.8707 20.6196L24.9329 6.0017L15.9302 22.939L14.8773 22.8169L5.8136 5.84911C5.45756 8.26 5.1473 10.4878 4.88282 12.5325C4.77092 13.4073 4.65902 14.2821 4.54712 15.157C4.43522 16.0216 4.3335 16.8304 4.24195 17.5831C4.16057 18.3359 4.09444 19.0022 4.04358 19.582C3.99272 20.1517 3.96729 20.5739 3.96729 20.8485C3.96729 21.1944 3.97746 21.4996 3.9978 21.764C4.01815 22.0285 4.0385 22.2523 4.05884 22.4354C4.08936 22.649 4.11988 22.8372 4.15039 23H1.09863V22.939ZM51.4923 23V22.939C51.5127 22.8881 51.5279 22.8118 51.5381 22.7101C51.5483 22.6084 51.5534 22.5168 51.5534 22.4354C51.5534 22.1201 51.5076 21.7742 51.416 21.3978C51.3347 21.0113 51.1719 20.5332 50.9278 19.9635L49.0814 15.8131C48.5118 15.7928 47.7539 15.7826 46.8079 15.7826C45.8618 15.7826 44.8395 15.7826 43.7409 15.7826C42.9372 15.7826 42.159 15.7826 41.4063 15.7826C40.6637 15.7826 39.9923 15.7928 39.3921 15.8131L37.6374 19.8414C37.4848 20.2178 37.322 20.6298 37.1491 21.0774C36.9761 21.525 36.8897 21.9777 36.8897 22.4354C36.8897 22.5677 36.8998 22.6796 36.9202 22.7711C36.9405 22.8525 36.9609 22.9084 36.9812 22.939V23H33.8684V22.939C34.0515 22.7457 34.2804 22.4049 34.5551 21.9166C34.8297 21.4182 35.1298 20.7976 35.4553 20.0551L44.1986 0.661121H45.4193L53.7049 19.3074C53.8981 19.7448 54.0965 20.172 54.3 20.5891C54.5136 20.996 54.7119 21.3622 54.895 21.6877C55.0782 22.0133 55.2409 22.2879 55.3833 22.5117C55.5257 22.7355 55.6224 22.8779 55.6732 22.939V23H51.4923ZM41.6046 14.4703C42.1946 14.4703 42.7999 14.4703 43.4204 14.4703C44.041 14.4602 44.6462 14.4551 45.2362 14.4551C45.8364 14.4449 46.4112 14.4398 46.9605 14.4398C47.5098 14.4296 48.0082 14.4195 48.4558 14.4093L44.1681 4.71996L39.9567 14.4703H41.6046ZM79.1657 20.4365C79.1657 20.5484 79.1504 20.6654 79.1199 20.7875C79.0996 20.9095 79.0436 21.0113 78.9521 21.0927C78.4943 21.4385 77.9959 21.759 77.4567 22.054C76.9277 22.3388 76.353 22.588 75.7325 22.8016C75.1119 23.0153 74.4406 23.178 73.7183 23.2899C73.0062 23.412 72.2382 23.473 71.4142 23.473C69.5628 23.473 67.8742 23.2035 66.3483 22.6643C64.8224 22.115 63.5102 21.3419 62.4115 20.345C61.3231 19.3481 60.4788 18.1528 59.8786 16.7592C59.2784 15.3553 58.9783 13.7989 58.9783 12.09C58.9783 11.1236 59.1004 10.1724 59.3445 9.23656C59.5988 8.30069 59.965 7.4106 60.4431 6.56628C60.9213 5.72196 61.5113 4.94884 62.2132 4.24694C62.9151 3.53486 63.7136 2.91942 64.6088 2.40062C65.5142 1.88182 66.506 1.48001 67.5843 1.19518C68.6727 0.900175 69.8477 0.752673 71.109 0.752673C71.5973 0.752673 72.0958 0.778105 72.6044 0.828967C73.113 0.869657 73.6166 0.935779 74.115 1.02733C74.6135 1.10871 75.0916 1.21044 75.5494 1.33251C76.0173 1.45458 76.4598 1.59191 76.8769 1.7445L77.9145 4.56737L77.7924 4.62841C77.3957 4.27237 76.9379 3.94176 76.4191 3.63659C75.9003 3.33141 75.3459 3.06692 74.7559 2.84313C74.1659 2.61933 73.5454 2.4464 72.8943 2.32433C72.2535 2.19209 71.6024 2.12597 70.9412 2.12597C69.6595 2.12597 68.4845 2.32942 67.4164 2.73632C66.3483 3.13305 65.4277 3.71288 64.6546 4.47582C63.8916 5.23876 63.2965 6.17463 62.8693 7.28344C62.442 8.39224 62.2284 9.65364 62.2284 11.0676C62.2284 12.624 62.4319 14.0685 62.8388 15.4011C63.2457 16.7337 63.8509 17.8883 64.6546 18.8649C65.4582 19.8414 66.4602 20.6095 67.6606 21.1689C68.8711 21.7183 70.28 21.9929 71.8872 21.9929C72.5993 21.9929 73.2351 21.937 73.7946 21.8251C74.3541 21.7132 74.8271 21.5758 75.2137 21.4131C75.6002 21.2402 75.8901 21.057 76.0834 20.8638C76.2869 20.6603 76.3886 20.4772 76.3886 20.3145V19.7194C76.3886 19.0073 76.3784 18.3918 76.3581 17.873C76.3377 17.3542 76.3072 16.9067 76.2665 16.5303C76.2258 16.1437 76.1801 15.8131 76.1292 15.5384C76.0783 15.2638 76.0173 15.0095 75.9461 14.7755V14.7145H79.6082V14.7755C79.5472 14.9891 79.4861 15.2434 79.4251 15.5384C79.3742 15.8233 79.3285 16.1641 79.2878 16.5608C79.2471 16.9575 79.2166 17.4255 79.1962 17.9646C79.1759 18.4936 79.1657 19.109 79.1657 19.8109V20.4365ZM86.3007 1.11888L102.017 17.8425V7.10033C102.017 6.23567 102.007 5.4829 101.987 4.84203C101.966 4.19099 101.936 3.6315 101.895 3.16356C101.855 2.68545 101.804 2.28873 101.743 1.97338C101.692 1.65803 101.636 1.39354 101.575 1.17992V1.11888H104.291V1.17992C104.23 1.39354 104.174 1.65803 104.123 1.97338C104.072 2.28873 104.026 2.68545 103.986 3.16356C103.945 3.6315 103.914 4.19099 103.894 4.84203C103.874 5.4829 103.864 6.23567 103.864 7.10033V23.3052H103.33L87.613 6.59679V17.0338C87.613 17.8985 87.6231 18.6563 87.6435 19.3074C87.6638 19.9482 87.6943 20.5026 87.735 20.9706C87.7757 21.4385 87.8215 21.8302 87.8724 22.1455C87.9232 22.4609 87.9792 22.7253 88.0402 22.939V23H85.3241V22.939C85.3852 22.7253 85.4411 22.4609 85.492 22.1455C85.553 21.8302 85.6039 21.4385 85.6446 20.9706C85.6853 20.5026 85.7158 19.9482 85.7361 19.3074C85.7565 18.6563 85.7666 17.8985 85.7666 17.0338V7.10033C85.7666 6.23567 85.7565 5.4829 85.7361 4.84203C85.7158 4.19099 85.6853 3.6315 85.6446 3.16356C85.6039 2.68545 85.553 2.28873 85.492 1.97338C85.4411 1.65803 85.3852 1.39354 85.3241 1.17992V1.11888H86.3007ZM126.547 7.10033C126.547 6.23567 126.537 5.4829 126.517 4.84203C126.496 4.19099 126.466 3.6315 126.425 3.16356C126.385 2.68545 126.339 2.28873 126.288 1.97338C126.237 1.65803 126.181 1.39354 126.12 1.17992V1.11888H128.836V1.17992C128.775 1.39354 128.714 1.65803 128.653 1.97338C128.602 2.28873 128.556 2.68545 128.516 3.16356C128.485 3.6315 128.455 4.19099 128.424 4.84203C128.404 5.4829 128.394 6.23567 128.394 7.10033V15.3401C128.394 16.7948 128.185 18.0358 127.768 19.0632C127.351 20.0907 126.771 20.935 126.029 21.5962C125.286 22.2472 124.396 22.7203 123.358 23.0153C122.321 23.3204 121.186 23.473 119.956 23.473C118.725 23.473 117.575 23.3306 116.507 23.0458C115.449 22.7609 114.523 22.3032 113.73 21.6725C112.947 21.0316 112.331 20.2076 111.884 19.2006C111.436 18.1833 111.212 16.9473 111.212 15.4927V7.10033C111.212 6.23567 111.202 5.4829 111.182 4.84203C111.161 4.19099 111.131 3.6315 111.09 3.16356C111.049 2.68545 110.999 2.28873 110.938 1.97338C110.887 1.65803 110.831 1.39354 110.77 1.17992V1.11888H114.432V1.17992C114.371 1.39354 114.31 1.65803 114.249 1.97338C114.198 2.28873 114.152 2.68545 114.111 3.16356C114.071 3.6315 114.04 4.19099 114.02 4.84203C113.999 5.4829 113.989 6.23567 113.989 7.10033V15.6605C113.989 16.871 114.167 17.873 114.523 18.6665C114.89 19.4498 115.368 20.0754 115.958 20.5433C116.548 21.0011 117.219 21.3215 117.972 21.5046C118.725 21.6877 119.493 21.7793 120.276 21.7793C121.059 21.7793 121.827 21.6877 122.58 21.5046C123.333 21.3215 123.999 21.0011 124.579 20.5433C125.169 20.0754 125.642 19.4498 125.998 18.6665C126.364 17.873 126.547 16.871 126.547 15.6605V7.10033ZM137.772 21.6572H144.302C145.493 21.6572 146.591 21.6064 147.598 21.5046C148.616 21.4029 149.501 21.2859 150.253 21.1537C151.128 21.0113 151.927 20.8434 152.649 20.6501L151.901 23.1221C151.779 23.1119 151.596 23.1017 151.352 23.0916C151.108 23.0814 150.833 23.0712 150.528 23.061C150.233 23.0509 149.918 23.0407 149.582 23.0305C149.256 23.0305 148.946 23.0254 148.651 23.0153C148.356 23.0153 148.092 23.0102 147.858 23C147.634 23 147.471 23 147.369 23H133.591V22.6185L148.453 2.46166H142.716C141.515 2.46166 140.406 2.51761 139.389 2.62951C138.382 2.73123 137.502 2.84313 136.749 2.9652C135.874 3.11779 135.081 3.28563 134.369 3.46874L135.422 0.996814C135.544 1.00699 135.727 1.01716 135.971 1.02733C136.225 1.0375 136.5 1.04768 136.795 1.05785C137.1 1.06802 137.416 1.07819 137.741 1.08837C138.067 1.08837 138.377 1.09345 138.672 1.10363C138.967 1.10363 139.226 1.10871 139.45 1.11888C139.684 1.11888 139.852 1.11888 139.954 1.11888H152.649V1.53087L137.772 21.6572Z" fill="white"/>
<path d="M162.406 9.03281C161.859 9.03281 161.353 8.93438 160.886 8.7375C160.419 8.54063 160.011 8.26719 159.661 7.91719C159.311 7.5599 159.037 7.14792 158.841 6.68125C158.651 6.21458 158.556 5.71146 158.556 5.17188C158.556 4.63229 158.655 4.12917 158.852 3.6625C159.048 3.19583 159.322 2.7875 159.672 2.4375C160.022 2.08021 160.43 1.80313 160.897 1.60625C161.371 1.40938 161.881 1.31094 162.428 1.31094C162.975 1.31094 163.482 1.40938 163.948 1.60625C164.422 1.79583 164.831 2.06563 165.173 2.41562C165.523 2.76563 165.793 3.17396 165.983 3.64063C166.18 4.1 166.278 4.60313 166.278 5.15C166.278 5.69688 166.18 6.20729 165.983 6.68125C165.786 7.14792 165.509 7.5599 165.152 7.91719C164.802 8.26719 164.393 8.54063 163.927 8.7375C163.46 8.93438 162.953 9.03281 162.406 9.03281ZM162.406 8.54063C162.88 8.54063 163.321 8.45313 163.73 8.27813C164.138 8.10313 164.495 7.8625 164.802 7.55625C165.108 7.25 165.345 6.89271 165.512 6.48438C165.68 6.06875 165.764 5.62396 165.764 5.15C165.764 4.67604 165.68 4.2349 165.512 3.82656C165.345 3.41823 165.111 3.06458 164.812 2.76562C164.514 2.46667 164.16 2.23333 163.752 2.06563C163.351 1.89063 162.909 1.80313 162.428 1.80313C161.947 1.80313 161.498 1.89063 161.083 2.06563C160.674 2.23333 160.321 2.47396 160.022 2.7875C159.723 3.09375 159.49 3.45104 159.322 3.85938C159.154 4.26042 159.07 4.69792 159.07 5.17188C159.07 5.64583 159.154 6.08698 159.322 6.49531C159.49 6.90365 159.723 7.26094 160.022 7.56719C160.321 7.87344 160.674 8.11406 161.083 8.28906C161.491 8.45677 161.932 8.54063 162.406 8.54063ZM162.527 7.425C162.082 7.425 161.684 7.33021 161.334 7.14063C160.984 6.95104 160.711 6.68854 160.514 6.35313C160.317 6.01042 160.219 5.61667 160.219 5.17188C160.219 4.72708 160.317 4.33698 160.514 4.00156C160.711 3.65885 160.984 3.39271 161.334 3.20313C161.684 3.01354 162.082 2.91875 162.527 2.91875C162.913 2.91875 163.259 2.99896 163.566 3.15938C163.879 3.3125 164.123 3.5276 164.298 3.80469L163.675 4.25313C163.536 4.04896 163.365 3.89948 163.161 3.80469C162.964 3.7099 162.749 3.6625 162.516 3.6625C162.231 3.6625 161.98 3.72813 161.761 3.85938C161.549 3.98333 161.378 4.15833 161.247 4.38438C161.116 4.60313 161.05 4.86563 161.05 5.17188C161.05 5.47813 161.116 5.74427 161.247 5.97031C161.378 6.18906 161.549 6.36406 161.761 6.49531C161.98 6.61927 162.231 6.68125 162.516 6.68125C162.749 6.68125 162.964 6.63385 163.161 6.53906C163.365 6.44427 163.536 6.29479 163.675 6.09063L164.298 6.52813C164.123 6.80521 163.879 7.02396 163.566 7.18438C163.259 7.34479 162.913 7.425 162.527 7.425Z" fill="white"/>
</svg>
