<svg width="43" height="25" viewBox="0 0 43 25" fill="none" xmlns="http://www.w3.org/2000/svg">
<path d="M1.15967 23.9355C1.27783 23.7637 1.41211 23.5112 1.5625 23.1782C1.71289 22.8345 1.83105 22.4048 1.91699 21.8892C2.03516 21.1372 2.16406 20.2939 2.30371 19.3594C2.4541 18.4141 2.60449 17.4258 2.75488 16.3945C2.91602 15.3633 3.07178 14.3105 3.22217 13.2363C3.3833 12.1514 3.53369 11.0879 3.67334 10.0459C3.82373 8.99316 3.96338 7.9834 4.09229 7.0166C4.23193 6.03906 4.35547 5.14746 4.46289 4.3418C4.57031 3.53613 4.65625 2.83789 4.7207 2.24707C4.7959 1.64551 4.84961 1.19434 4.88184 0.893555H6.92822L17.0635 19.8428L27.1182 0.893555H28.6489L31.2915 20.0361C31.3667 20.6377 31.4473 21.1533 31.5332 21.583C31.6191 22.0127 31.7051 22.3833 31.791 22.6948C31.877 22.9956 31.9575 23.248 32.0327 23.4521C32.1187 23.6455 32.1992 23.8066 32.2744 23.9355V24H28.2139V23.9355C28.2676 23.8174 28.3159 23.624 28.3589 23.3555C28.4126 23.0869 28.4395 22.7646 28.4395 22.3887C28.4395 22.249 28.4341 22.1094 28.4233 21.9697C28.4126 21.8193 28.3965 21.6582 28.375 21.4863L26.3286 6.0498L16.8218 23.9355L15.71 23.8066L6.13867 5.88867C5.7627 8.43457 5.43506 10.7871 5.15576 12.9463C5.0376 13.8701 4.91943 14.7939 4.80127 15.7178C4.68311 16.6309 4.57568 17.4849 4.479 18.2798C4.39307 19.0747 4.32324 19.7783 4.26953 20.3906C4.21582 20.9922 4.18896 21.438 4.18896 21.728C4.18896 22.0933 4.19971 22.4155 4.22119 22.6948C4.24268 22.9741 4.26416 23.2104 4.28564 23.4038C4.31787 23.6294 4.3501 23.8281 4.38232 24H1.15967V23.9355ZM37.5609 22.582C37.5609 22.3457 37.6039 22.1255 37.6898 21.9214C37.7865 21.7065 37.91 21.5239 38.0604 21.3735C38.2216 21.2124 38.4042 21.0889 38.6083 21.0029C38.8231 20.9062 39.0487 20.8579 39.285 20.8579C39.5321 20.8579 39.7577 20.9062 39.9618 21.0029C40.1767 21.0889 40.3593 21.2124 40.5097 21.3735C40.6708 21.5239 40.7943 21.7065 40.8803 21.9214C40.9769 22.1255 41.0253 22.3457 41.0253 22.582C41.0253 23.0762 40.8588 23.4897 40.5258 23.8228C40.1928 24.1558 39.7792 24.3223 39.285 24.3223C39.0487 24.3223 38.8231 24.2739 38.6083 24.1772C38.4042 24.0913 38.2216 23.9731 38.0604 23.8228C37.91 23.6616 37.7865 23.479 37.6898 23.2749C37.6039 23.0601 37.5609 22.8291 37.5609 22.582Z" fill="#122620"/>
</svg>
