<svg width="41" height="25" viewBox="0 0 41 25" fill="none" xmlns="http://www.w3.org/2000/svg">
<path d="M0.160156 23.9355C0.27832 23.7637 0.412598 23.5112 0.562988 23.1782C0.713379 22.8345 0.831543 22.4048 0.91748 21.8892C1.03564 21.1372 1.16455 20.2939 1.3042 19.3594C1.45459 18.4141 1.60498 17.4258 1.75537 16.3945C1.9165 15.3633 2.07227 14.3105 2.22266 13.2363C2.38379 12.1514 2.53418 11.0879 2.67383 10.0459C2.82422 8.99316 2.96387 7.9834 3.09277 7.0166C3.23242 6.03906 3.35596 5.14746 3.46338 4.3418C3.5708 3.53613 3.65674 2.83789 3.72119 2.24707C3.79639 1.64551 3.8501 1.19434 3.88232 0.893555H5.92871L16.064 19.8428L26.1187 0.893555H27.6494L30.292 20.0361C30.3672 20.6377 30.4478 21.1533 30.5337 21.583C30.6196 22.0127 30.7056 22.3833 30.7915 22.6948C30.8774 22.9956 30.958 23.248 31.0332 23.4521C31.1191 23.6455 31.1997 23.8066 31.2749 23.9355V24H27.2144V23.9355C27.2681 23.8174 27.3164 23.624 27.3594 23.3555C27.4131 23.0869 27.4399 22.7646 27.4399 22.3887C27.4399 22.249 27.4346 22.1094 27.4238 21.9697C27.4131 21.8193 27.397 21.6582 27.3755 21.4863L25.3291 6.0498L15.8223 23.9355L14.7104 23.8066L5.13916 5.88867C4.76318 8.43457 4.43555 10.7871 4.15625 12.9463C4.03809 13.8701 3.91992 14.7939 3.80176 15.7178C3.68359 16.6309 3.57617 17.4849 3.47949 18.2798C3.39355 19.0747 3.32373 19.7783 3.27002 20.3906C3.21631 20.9922 3.18945 21.438 3.18945 21.728C3.18945 22.0933 3.2002 22.4155 3.22168 22.6948C3.24316 22.9741 3.26465 23.2104 3.28613 23.4038C3.31836 23.6294 3.35059 23.8281 3.38281 24H0.160156V23.9355ZM36.5614 22.582C36.5614 22.3457 36.6044 22.1255 36.6903 21.9214C36.787 21.7065 36.9105 21.5239 37.0609 21.3735C37.2221 21.2124 37.4047 21.0889 37.6088 21.0029C37.8236 20.9062 38.0492 20.8579 38.2855 20.8579C38.5326 20.8579 38.7582 20.9062 38.9623 21.0029C39.1771 21.0889 39.3598 21.2124 39.5101 21.3735C39.6713 21.5239 39.7948 21.7065 39.8808 21.9214C39.9774 22.1255 40.0258 22.3457 40.0258 22.582C40.0258 23.0762 39.8593 23.4897 39.5263 23.8228C39.1933 24.1558 38.7797 24.3223 38.2855 24.3223C38.0492 24.3223 37.8236 24.2739 37.6088 24.1772C37.4047 24.0913 37.2221 23.9731 37.0609 23.8228C36.9105 23.6616 36.787 23.479 36.6903 23.2749C36.6044 23.0601 36.5614 22.8291 36.5614 22.582Z" fill="#D3B184"/>
</svg>
