<svg width="31" height="31" viewBox="0 0 31 31" fill="none" xmlns="http://www.w3.org/2000/svg">
<g clip-path="url(#clip0_2_7066)">
<path d="M10.1133 13.8441H21.0397V14.7508H10.1133V13.8441Z" fill="#D3B184"/>
<path d="M10.1133 17.4865H21.0397V18.397H10.1133V17.4865Z" fill="#D3B184"/>
<path d="M10.1133 21.1295H17.3975V22.04H10.1133V21.1295Z" fill="#D3B184"/>
<path d="M18.2675 4.73892C18.0505 3.44734 16.9299 2.46216 15.5767 2.46216C14.2235 2.46216 13.1029 3.44734 12.8859 4.73892H4.64941V28.4136H26.5022V4.73892H18.2675ZM13.7556 6.82907V5.19375C13.7556 4.18948 14.5724 3.37269 15.5767 3.37269C16.5809 3.37269 17.3977 4.18948 17.3977 5.19375V6.82907L17.8586 7.0912C18.7527 7.59985 19.4384 8.37324 19.8316 9.29158H11.3226C11.7158 8.37324 12.4015 7.59985 13.2956 7.0912L13.7556 6.82907ZM25.5934 27.5031H5.56168V5.64945H12.8459V6.29959C11.4242 7.10856 10.3947 8.52687 10.1143 10.2021H21.0407C20.7612 8.52687 19.7309 7.10943 18.3091 6.29959V5.64945H25.5934V27.5031Z" fill="#D3B184"/>
</g>
<defs>
<clipPath id="clip0_2_7066">
<rect width="21.7" height="27.776" fill="white" transform="translate(4.65039 1.54999)"/>
</clipPath>
</defs>
</svg>
