<svg width="31" height="31" viewBox="0 0 31 31" fill="none" xmlns="http://www.w3.org/2000/svg">
<path d="M26.1375 0.708441C25.8352 0.406191 25.438 0.255066 25.0418 0.255066C24.6456 0.255066 24.2484 0.406191 23.9462 0.708441L19.3872 5.26641V4.40325H2.86035V24.0292H22.4863V7.50229H21.5359L26.1375 2.89975C26.7429 2.29525 26.7429 1.31391 26.1375 0.708441ZM21.4526 22.9955H3.89304V5.43594H19.2177L11.1228 13.5299V15.7648H13.2725L21.4526 7.58366V22.9945V22.9955ZM25.407 2.16932L12.8453 14.7321H12.1565V13.9571L24.6766 1.43694C24.8074 1.30616 24.9614 1.28678 25.0409 1.28678C25.1203 1.28678 25.2753 1.30616 25.4061 1.43791C25.5378 1.56966 25.5582 1.72369 25.5582 1.80313C25.5582 1.88257 25.5388 2.03563 25.4061 2.16835L25.407 2.16932Z" fill="#D3B184"/>
</svg>
