<svg width="46" height="46" viewBox="0 0 46 46" fill="none" xmlns="http://www.w3.org/2000/svg">
<path d="M33.1414 4.88749L32.1969 4.41455L31.4308 4.79693V4.79836L23.0013 9.01311L13.8041 4.41455L3.84082 9.39549V41.5826L13.8041 36.6016L23.0013 41.2002L32.1984 36.6016L42.1617 41.5826V9.39549L33.1428 4.88605L33.1414 4.88749ZM13.0365 35.2719L5.3732 39.1043V10.3442L13.0365 6.51186V35.2719ZM22.2336 39.1043L14.5703 35.2719V6.51186L22.2336 10.3442V39.1043ZM31.4293 35.2719L23.766 39.1043V10.3442L31.4293 6.51186V35.2719ZM40.6264 39.1043L32.9631 35.2719V6.51186L40.6264 10.3442V39.1043Z" fill="#D3B184"/>
</svg>
